ply
format ascii 1.0
comment Created by Blender 2.80 (sub 45) - www.blender.org, source file: 'table.blend'
element vertex 122
property float x
property float y
property float z
property float nx
property float ny
property float nz
property float s
property float t
element face 60
property list uchar uint vertex_indices
end_header
0.249728 0.374277 0.572758 -0.799613 0.000000 0.600516 0.375000 0.000000
-0.204457 0.374277 -0.032010 -0.799613 0.000000 0.600516 0.625000 0.000000
-0.204457 0.316214 -0.032010 -0.799613 0.000000 0.600516 0.625000 0.250000
0.249728 0.316214 0.572758 -0.799613 0.000000 0.600516 0.375000 0.250000
0.249728 0.316214 0.572758 -0.000000 1.000000 -0.000000 0.375000 0.250000
-0.204457 0.316214 -0.032010 -0.000000 1.000000 -0.000000 0.625000 0.250000
-0.249728 0.316214 0.001989 -0.000000 1.000000 -0.000000 0.625000 0.500000
0.204457 0.316214 0.606757 -0.000000 1.000000 -0.000000 0.375000 0.500000
0.204457 0.316214 0.606757 0.799613 0.000000 -0.600516 0.375000 0.500000
-0.249728 0.316214 0.001989 0.799613 0.000000 -0.600516 0.625000 0.500000
-0.249728 0.374277 0.001989 0.799613 0.000000 -0.600516 0.625000 0.750000
0.204457 0.374277 0.606757 0.799613 0.000000 -0.600516 0.375000 0.750000
0.204457 0.374277 0.606757 0.000000 -1.000000 0.000000 0.375000 0.750000
-0.249728 0.374277 0.001989 0.000000 -1.000000 0.000000 0.625000 0.750000
-0.204457 0.374277 -0.032010 0.000000 -1.000000 0.000000 0.625000 1.000000
0.249728 0.374277 0.572758 0.000000 -1.000000 0.000000 0.375000 1.000000
0.249728 0.316214 0.572758 -0.600516 -0.000000 -0.799613 0.125000 0.500000
0.204457 0.316214 0.606757 -0.600516 -0.000000 -0.799613 0.375000 0.500000
0.204457 0.374277 0.606757 -0.600516 -0.000000 -0.799613 0.375000 0.750000
0.249728 0.374277 0.572758 -0.600516 0.000000 -0.799613 0.125000 0.750000
-0.249728 0.316214 0.001989 0.600516 0.000000 0.799613 0.625000 0.500000
-0.204457 0.316214 -0.032010 0.600516 0.000000 0.799613 0.875000 0.500000
-0.204457 0.374277 -0.032010 0.600516 0.000000 0.799613 0.875000 0.750000
-0.249728 0.374277 0.001989 0.600516 0.000000 0.799613 0.625000 0.750000
-0.202385 -0.293494 0.608074 -0.803484 0.000000 -0.595327 0.375000 0.000000
0.247876 -0.293494 0.000378 -0.803484 0.000000 -0.595327 0.625000 0.000000
0.247876 -0.351557 0.000378 -0.803484 0.000000 -0.595327 0.625000 0.250000
-0.202385 -0.351557 0.608074 -0.803484 0.000000 -0.595327 0.375000 0.250000
-0.202385 -0.351557 0.608074 -0.000000 1.000000 0.000000 0.375000 0.250000
0.247876 -0.351557 0.000378 -0.000000 1.000000 0.000000 0.625000 0.250000
0.202385 -0.351557 -0.033327 -0.000000 1.000000 0.000000 0.625000 0.500000
-0.247876 -0.351557 0.574368 -0.000000 1.000000 0.000000 0.375000 0.500000
-0.247876 -0.351557 0.574368 0.803484 0.000000 0.595327 0.375000 0.500000
0.202385 -0.351557 -0.033327 0.803484 0.000000 0.595327 0.625000 0.500000
0.202385 -0.293494 -0.033327 0.803484 0.000000 0.595327 0.625000 0.750000
-0.247876 -0.293494 0.574368 0.803484 0.000000 0.595327 0.375000 0.750000
-0.247876 -0.293494 0.574368 0.000000 -1.000000 -0.000000 0.375000 0.750000
0.202385 -0.293494 -0.033327 0.000000 -1.000000 -0.000000 0.625000 0.750000
0.247876 -0.293494 0.000378 0.000000 -1.000000 -0.000000 0.625000 1.000000
-0.202385 -0.293494 0.608074 0.000000 -1.000000 -0.000000 0.375000 1.000000
-0.202385 -0.351557 0.608074 0.595327 0.000000 -0.803483 0.125000 0.500000
-0.247876 -0.351557 0.574368 0.595327 0.000000 -0.803483 0.375000 0.500000
-0.247876 -0.293494 0.574368 0.595327 0.000000 -0.803483 0.375000 0.750000
-0.202385 -0.293494 0.608074 0.595327 0.000000 -0.803483 0.125000 0.750000
0.202385 -0.351557 -0.033327 -0.595327 0.000000 0.803483 0.625000 0.500000
0.247876 -0.351557 0.000378 -0.595327 0.000000 0.803483 0.875000 0.500000
0.247876 -0.293494 0.000378 -0.595327 0.000000 0.803483 0.875000 0.750000
0.202385 -0.293494 -0.033327 -0.595327 0.000000 0.803483 0.625000 0.750000
0.249728 -0.293494 0.572758 -0.799613 0.000000 0.600516 0.375000 0.000000
-0.204457 -0.293494 -0.032010 -0.799613 0.000000 0.600516 0.625000 0.000000
-0.204457 -0.351557 -0.032010 -0.799613 0.000000 0.600516 0.625000 0.250000
0.249728 -0.351557 0.572758 -0.799613 0.000000 0.600516 0.375000 0.250000
0.249728 -0.351557 0.572758 -0.000000 1.000000 0.000000 0.375000 0.250000
-0.204457 -0.351557 -0.032010 -0.000000 1.000000 0.000000 0.625000 0.250000
-0.249728 -0.351557 0.001989 -0.000000 1.000000 0.000000 0.625000 0.500000
0.204457 -0.351557 0.606757 -0.000000 1.000000 0.000000 0.375000 0.500000
0.204457 -0.351557 0.606757 0.799613 0.000000 -0.600516 0.375000 0.500000
-0.249728 -0.351557 0.001989 0.799613 0.000000 -0.600516 0.625000 0.500000
-0.249728 -0.293494 0.001989 0.799613 0.000000 -0.600516 0.625000 0.750000
0.204457 -0.293494 0.606757 0.799613 0.000000 -0.600516 0.375000 0.750000
0.204457 -0.293494 0.606757 0.000000 -1.000000 0.000000 0.375000 0.750000
-0.249728 -0.293494 0.001989 0.000000 -1.000000 0.000000 0.625000 0.750000
-0.204457 -0.293494 -0.032010 0.000000 -1.000000 0.000000 0.625000 1.000000
0.249728 -0.293494 0.572758 -0.000000 -1.000000 0.000000 0.375000 1.000000
0.249728 -0.351557 0.572758 -0.600516 -0.000000 -0.799613 0.125000 0.500000
0.204457 -0.351557 0.606757 -0.600516 -0.000000 -0.799613 0.375000 0.500000
0.204457 -0.293494 0.606757 -0.600516 -0.000000 -0.799613 0.375000 0.750000
0.249728 -0.293494 0.572758 -0.600516 0.000000 -0.799613 0.125000 0.750000
-0.249728 -0.351557 0.001989 0.600516 0.000000 0.799613 0.625000 0.500000
-0.204457 -0.351557 -0.032010 0.600516 0.000000 0.799613 0.875000 0.500000
-0.204457 -0.293494 -0.032010 0.600516 0.000000 0.799613 0.875000 0.750000
-0.249728 -0.293494 0.001989 0.600516 0.000000 0.799613 0.625000 0.750000
-0.202385 0.374277 0.608074 -0.803484 0.000000 -0.595327 0.375000 0.000000
0.247876 0.374277 0.000378 -0.803484 0.000000 -0.595327 0.625000 0.000000
0.247876 0.316214 0.000378 -0.803484 0.000000 -0.595327 0.625000 0.250000
-0.202385 0.316214 0.608074 -0.803484 0.000000 -0.595327 0.375000 0.250000
-0.202385 0.316214 0.608074 0.000000 1.000000 -0.000000 0.375000 0.250000
0.247876 0.316214 0.000378 0.000000 1.000000 -0.000000 0.625000 0.250000
0.202385 0.316214 -0.033327 0.000000 1.000000 -0.000000 0.625000 0.500000
-0.247876 0.316214 0.574368 -0.000000 1.000000 -0.000000 0.375000 0.500000
-0.247876 0.316214 0.574368 0.803484 0.000000 0.595327 0.375000 0.500000
0.202385 0.316214 -0.033327 0.803484 0.000000 0.595327 0.625000 0.500000
0.202385 0.374277 -0.033327 0.803484 0.000000 0.595327 0.625000 0.750000
-0.247876 0.374277 0.574368 0.803484 0.000000 0.595327 0.375000 0.750000
-0.247876 0.374277 0.574368 -0.000000 -1.000000 0.000000 0.375000 0.750000
0.202385 0.374277 -0.033327 -0.000000 -1.000000 0.000000 0.625000 0.750000
0.247876 0.374277 0.000378 -0.000000 -1.000000 0.000000 0.625000 1.000000
-0.202385 0.374277 0.608074 -0.000000 -1.000000 -0.000000 0.375000 1.000000
-0.202385 0.316214 0.608074 0.595327 0.000000 -0.803484 0.125000 0.500000
-0.247876 0.316214 0.574368 0.595327 0.000000 -0.803484 0.375000 0.500000
-0.247876 0.374277 0.574368 0.595327 0.000000 -0.803484 0.375000 0.750000
-0.202385 0.374277 0.608074 0.595327 0.000000 -0.803484 0.125000 0.750000
0.202385 0.316214 -0.033327 -0.595327 0.000000 0.803483 0.625000 0.500000
0.247876 0.316214 0.000378 -0.595327 0.000000 0.803483 0.875000 0.500000
0.247876 0.374277 0.000378 -0.595327 0.000000 0.803483 0.875000 0.750000
0.202385 0.374277 -0.033327 -0.595327 0.000000 0.803483 0.625000 0.750000
-0.394736 -0.638940 0.566227 -1.000000 -0.000000 0.000001 0.375000 0.000000
-0.394736 -0.638940 0.615657 -1.000000 -0.000000 0.000001 0.625000 0.000000
-0.394736 0.638940 0.615657 -1.000000 -0.000000 0.000001 0.625000 0.250000
-0.394736 0.638940 0.566227 -1.000000 -0.000000 0.000001 0.375000 0.250000
-0.394736 0.638940 0.566227 0.000000 1.000000 0.000000 0.375000 0.250000
-0.394736 0.638940 0.615657 0.000000 1.000000 0.000000 0.625000 0.250000
0.405760 0.638940 0.615657 0.000000 1.000000 0.000000 0.625000 0.500000
0.405760 0.638940 0.566227 0.000000 1.000000 -0.000000 0.375000 0.500000
0.405760 0.638940 0.566227 1.000000 0.000000 -0.000001 0.375000 0.500000
0.405760 0.638940 0.615657 1.000000 0.000000 -0.000001 0.625000 0.500000
0.405760 -0.638940 0.615657 1.000000 0.000000 -0.000001 0.625000 0.750000
0.405760 0.638940 0.566227 1.000000 0.000000 -0.000000 0.375000 0.500000
0.405760 -0.638940 0.615657 1.000000 0.000000 -0.000000 0.625000 0.750000
0.405760 -0.638940 0.566227 1.000000 0.000000 -0.000000 0.375000 0.750000
0.405760 -0.638940 0.566227 0.000000 -1.000000 0.000000 0.375000 0.750000
0.405760 -0.638940 0.615657 0.000000 -1.000000 0.000000 0.625000 0.750000
-0.394736 -0.638940 0.615657 0.000000 -1.000000 0.000000 0.625000 1.000000
-0.394736 -0.638940 0.566227 0.000000 -1.000000 0.000000 0.375000 1.000000
-0.394736 0.638940 0.566227 0.000000 0.000000 -1.000000 0.125000 0.500000
0.405760 0.638940 0.566227 0.000000 0.000000 -1.000000 0.375000 0.500000
0.405760 -0.638940 0.566227 0.000000 0.000000 -1.000000 0.375000 0.750000
-0.394736 -0.638940 0.566227 0.000000 0.000000 -1.000000 0.125000 0.750000
0.405760 0.638940 0.615657 0.000000 -0.000000 1.000000 1.118432 1.101706
-0.394736 0.638940 0.615657 0.000000 -0.000000 1.000000 -0.100745 1.101706
-0.394736 -0.638940 0.615657 0.000000 -0.000000 1.000000 -0.100745 -0.117471
0.405760 -0.638940 0.615657 -0.000000 0.000000 1.000000 1.118432 -0.117471
3 0 1 2
3 0 2 3
3 4 5 6
3 4 6 7
3 8 9 10
3 8 10 11
3 12 13 14
3 12 14 15
3 16 17 18
3 16 18 19
3 20 21 22
3 20 22 23
3 24 25 26
3 24 26 27
3 28 29 30
3 28 30 31
3 32 33 34
3 32 34 35
3 36 37 38
3 36 38 39
3 40 41 42
3 40 42 43
3 44 45 46
3 44 46 47
3 48 49 50
3 48 50 51
3 52 53 54
3 52 54 55
3 56 57 58
3 56 58 59
3 60 61 62
3 60 62 63
3 64 65 66
3 64 66 67
3 68 69 70
3 68 70 71
3 72 73 74
3 72 74 75
3 76 77 78
3 76 78 79
3 80 81 82
3 80 82 83
3 84 85 86
3 84 86 87
3 88 89 90
3 88 90 91
3 92 93 94
3 92 94 95
3 96 97 98
3 96 98 99
3 100 101 102
3 100 102 103
3 104 105 106
3 107 108 109
3 110 111 112
3 110 112 113
3 114 115 116
3 114 116 117
3 118 119 120
3 118 120 121
