# Blender v2.80 (sub 45) OBJ File: 'table.blend'
# www.blender.org
mtllib table.mtl
o table_Cube.004
v 0.249728 0.572758 -0.374277
v -0.204457 -0.032010 -0.374277
v 0.249728 0.572758 -0.316214
v -0.204457 -0.032010 -0.316214
v 0.204457 0.606757 -0.374277
v -0.249728 0.001989 -0.374277
v 0.204457 0.606757 -0.316214
v -0.249728 0.001989 -0.316214
v -0.202385 0.608074 0.293494
v 0.247876 0.000378 0.293494
v -0.202385 0.608074 0.351557
v 0.247876 0.000378 0.351557
v -0.247876 0.574368 0.293494
v 0.202385 -0.033327 0.293494
v -0.247876 0.574368 0.351557
v 0.202385 -0.033327 0.351557
v 0.249728 0.572758 0.293494
v -0.204457 -0.032010 0.293494
v 0.249728 0.572758 0.351557
v -0.204457 -0.032010 0.351557
v 0.204457 0.606757 0.293494
v -0.249728 0.001989 0.293494
v 0.204457 0.606757 0.351557
v -0.249728 0.001989 0.351557
v -0.202385 0.608074 -0.374277
v 0.247876 0.000378 -0.374277
v -0.202385 0.608074 -0.316214
v 0.247876 0.000378 -0.316214
v -0.247876 0.574368 -0.374277
v 0.202385 -0.033327 -0.374277
v -0.247876 0.574368 -0.316214
v 0.202385 -0.033327 -0.316214
v -0.394736 0.566227 0.638940
v -0.394736 0.615657 0.638940
v -0.394736 0.566227 -0.638940
v -0.394736 0.615657 -0.638940
v 0.405760 0.566227 0.638940
v 0.405760 0.615657 0.638940
v 0.405760 0.566227 -0.638940
v 0.405760 0.615657 -0.638940
vt 0.375000 0.000000
vt 0.375000 0.250000
vt 0.625000 0.250000
vt 0.625000 0.000000
vt 0.375000 0.500000
vt 0.625000 0.500000
vt 0.375000 0.750000
vt 0.625000 0.750000
vt 0.375000 1.000000
vt 0.625000 1.000000
vt 0.125000 0.500000
vt 0.125000 0.750000
vt 0.875000 0.750000
vt 0.875000 0.500000
vt 0.375000 0.000000
vt 0.375000 0.250000
vt 0.625000 0.250000
vt 0.625000 0.000000
vt 0.375000 0.500000
vt 0.625000 0.500000
vt 0.375000 0.750000
vt 0.625000 0.750000
vt 0.375000 1.000000
vt 0.625000 1.000000
vt 0.125000 0.500000
vt 0.125000 0.750000
vt 0.875000 0.750000
vt 0.875000 0.500000
vt 0.375000 0.000000
vt 0.375000 0.250000
vt 0.625000 0.250000
vt 0.625000 0.000000
vt 0.375000 0.500000
vt 0.625000 0.500000
vt 0.375000 0.750000
vt 0.625000 0.750000
vt 0.375000 1.000000
vt 0.625000 1.000000
vt 0.125000 0.500000
vt 0.125000 0.750000
vt 0.875000 0.750000
vt 0.875000 0.500000
vt 0.375000 0.000000
vt 0.375000 0.250000
vt 0.625000 0.250000
vt 0.625000 0.000000
vt 0.375000 0.500000
vt 0.625000 0.500000
vt 0.375000 0.750000
vt 0.625000 0.750000
vt 0.375000 1.000000
vt 0.625000 1.000000
vt 0.125000 0.500000
vt 0.125000 0.750000
vt 0.875000 0.750000
vt 0.875000 0.500000
vt 0.375000 0.000000
vt 0.375000 0.250000
vt 0.625000 0.250000
vt 0.625000 0.000000
vt 0.375000 0.500000
vt 0.625000 0.500000
vt 0.375000 0.750000
vt 0.625000 0.750000
vt 0.375000 1.000000
vt 0.625000 1.000000
vt 0.125000 0.500000
vt 0.125000 0.750000
vt 1.118432 1.101706
vt 1.118432 -0.117471
vt -0.100745 -0.117471
vt -0.100745 1.101706
vn 0.7996 -0.6005 0.0000
vn -0.0000 0.0000 1.0000
vn -0.7996 0.6005 0.0000
vn -0.0000 -0.0000 -1.0000
vn 0.6005 0.7996 0.0000
vn -0.6005 -0.7996 0.0000
vn 0.8035 0.5953 0.0000
vn -0.8035 -0.5953 0.0000
vn -0.5953 0.8035 0.0000
vn 0.5953 -0.8035 0.0000
vn 1.0000 -0.0000 -0.0000
vn -1.0000 0.0000 0.0000
vn 0.0000 1.0000 -0.0000
vn 0.0000 -1.0000 -0.0000
usemtl Material.001
s off
f 1/1/1 3/2/1 4/3/1 2/4/1
f 3/2/2 7/5/2 8/6/2 4/3/2
f 7/5/3 5/7/3 6/8/3 8/6/3
f 5/7/4 1/9/4 2/10/4 6/8/4
f 3/11/5 1/12/5 5/7/5 7/5/5
f 8/6/6 6/8/6 2/13/6 4/14/6
f 9/15/7 11/16/7 12/17/7 10/18/7
f 11/16/2 15/19/2 16/20/2 12/17/2
f 15/19/8 13/21/8 14/22/8 16/20/8
f 13/21/4 9/23/4 10/24/4 14/22/4
f 11/25/9 9/26/9 13/21/9 15/19/9
f 16/20/10 14/22/10 10/27/10 12/28/10
f 17/29/1 19/30/1 20/31/1 18/32/1
f 19/30/2 23/33/2 24/34/2 20/31/2
f 23/33/3 21/35/3 22/36/3 24/34/3
f 21/35/4 17/37/4 18/38/4 22/36/4
f 19/39/5 17/40/5 21/35/5 23/33/5
f 24/34/6 22/36/6 18/41/6 20/42/6
f 25/43/7 27/44/7 28/45/7 26/46/7
f 27/44/2 31/47/2 32/48/2 28/45/2
f 31/47/8 29/49/8 30/50/8 32/48/8
f 29/49/4 25/51/4 26/52/4 30/50/4
f 27/53/9 25/54/9 29/49/9 31/47/9
f 32/48/10 30/50/10 26/55/10 28/56/10
f 33/57/11 35/58/11 36/59/11 34/60/11
f 35/58/2 39/61/2 40/62/2 36/59/2
f 39/61/12 37/63/12 38/64/12 40/62/12
f 37/63/4 33/65/4 34/66/4 38/64/4
f 35/67/13 33/68/13 37/63/13 39/61/13
f 40/69/14 38/70/14 34/71/14 36/72/14
